<svg width="154" height="24" viewBox="0 0 154 24" fill="none" xmlns="http://www.w3.org/2000/svg">
<path d="M44.1092 12.6982H3.29456V16.6712H44.1092V12.6982Z" fill="#FF0000"/>
<path d="M44.11 6.33143H6.42493V9.99918H44.11V6.33143Z" fill="#FF0000"/>
<path d="M44.1101 0.322041H10.0857V3.63334H44.1101V0.322041Z" fill="#FF0000"/>
<path d="M150.247 7.09904H128.009V11.0721H150.247V7.09904Z" fill="#FF0000"/>
<path d="M147.117 13.8769H128.009V17.5447H147.117V13.8769Z" fill="#FF0000"/>
<path d="M143.457 20.3504H128.009V23.6617H143.457V20.3504Z" fill="#FF0000"/>
<path d="M56.8779 0.322041L54.3298 15.053L48.7668 0.322041H43.413L40.1167 19.3684H0V23.6617H39.3738H44.11H44.8556L47.4204 8.92983L52.9993 23.6617H58.3046L62.3605 0.322041H56.8779Z" fill="white"/>
<path d="M61.8956 23.6617H77.5256L78.2782 19.3331H68.1317L69.1093 13.7552H77.6862L78.407 9.58714H69.8151L70.6807 4.66564H80.844L81.5975 0.322041H65.9356L61.8956 23.6617Z" fill="white"/>
<path d="M103.782 0.322041L98.9092 14.8933L98.0436 0.322041H93.3798L88.025 14.8289L87.7048 0.322041H82.3668L83.5367 23.6617H89.2109L94.2453 10.4368L95.1903 23.6617H100.865L109.329 0.322041H103.782Z" fill="white"/>
<path d="M153.705 4.2933V0H119.933L119.932 0.0105886C118.327 0.0229409 116.837 0.285869 115.468 0.818782C114.015 1.38522 112.878 2.17841 112.054 3.19924C111.231 4.22007 110.782 5.38207 110.707 6.68612C110.526 9.5395 112.279 11.7947 115.965 13.4508L118.594 14.5413C120.133 15.2039 120.784 16.1392 120.55 17.3461C120.411 18.0943 120.035 18.6793 119.42 19.1019C118.805 19.5246 118.038 19.7354 117.12 19.7354C115.88 19.7354 114.998 19.4284 114.475 18.8134C113.951 18.1993 113.721 17.2932 113.786 16.0959L108.287 16.08C108.223 18.4314 108.971 20.3283 110.532 21.7709C111.301 22.4873 112.225 23.0317 113.305 23.4058C114.384 23.779 115.554 23.9776 116.815 23.9987C118.536 24.0208 120.088 23.7535 121.472 23.1976C122.856 22.6417 123.938 21.8565 124.718 20.841C125.498 19.8263 125.931 18.6449 126.016 17.2985C126.177 14.7019 124.98 12.639 122.425 11.1109C121.613 10.6194 120.311 10.0318 118.522 9.34804C116.733 8.66425 115.939 7.78723 116.142 6.71876C116.27 5.95998 116.687 5.3556 117.392 4.90651C117.996 4.52182 118.684 4.32066 119.445 4.28184L119.443 4.2933H153.705Z" fill="white"/>
</svg>
