<svg width="468" height="54" viewBox="0 0 468 54" fill="none" xmlns="http://www.w3.org/2000/svg">
<path d="M43.5391 1.20117L44.623 1.96289C44.2129 3.85742 43.6465 5.35156 42.9238 6.44531C42.2207 7.53906 41.1758 8.4082 39.7891 9.05273C38.4219 9.67773 36.8398 9.99023 35.043 9.99023C34.0859 9.99023 32.9238 9.93164 31.5566 9.81445V39.4336C34.5254 38.5352 36.8887 37.3828 38.6465 35.9766C40.4043 34.5508 42.0352 32.5098 43.5391 29.8535L44.623 30.3809C43.7637 32.998 42.7676 35.0977 41.6348 36.6797C39.8184 39.2383 37.4746 41.2695 34.6035 42.7734C31.7324 44.2578 28.4121 45 24.6426 45C20.9707 45 17.5332 44.2969 14.3301 42.8906C12.4746 42.0703 10.7754 40.918 9.23242 39.4336C7.68945 37.9492 6.41992 36.1523 5.42383 34.043C4.44727 31.9336 3.95898 29.541 3.95898 26.8652C3.95898 24.1699 4.49609 21.5918 5.57031 19.1309C6.64453 16.6699 8.22656 14.3164 10.3164 12.0703C11.6445 10.6641 13.5195 9.11133 15.9414 7.41211L12.25 7.20703C10.8828 7.12891 9.36914 7.42187 7.70898 8.08594C6.04883 8.73047 4.75 9.59961 3.8125 10.6934C2.89453 11.7871 2.09375 13.418 1.41016 15.5859L0.326172 14.9414C0.990234 12.168 1.84961 10.0098 2.9043 8.4668C4.31055 6.41602 6.16602 4.83398 8.4707 3.7207C10.7754 2.58789 13.4023 2.02148 16.3516 2.02148C18.4023 2.02148 22.0254 2.45117 27.2207 3.31055C32.416 4.16992 35.9902 4.59961 37.9434 4.59961C39.252 4.59961 40.248 4.4043 40.9316 4.01367C41.6348 3.60352 42.5039 2.66602 43.5391 1.20117ZM19.2227 7.70508L17.6699 7.55859C15.0527 9.80469 13.1289 12.0508 11.8984 14.2969C10.2383 17.3242 9.4082 20.4395 9.4082 23.6426C9.4082 29.1113 11.6543 33.5742 16.1465 37.0312C17.5723 35.8398 18.4414 34.873 18.7539 34.1309C19.0664 33.3887 19.2227 31.875 19.2227 29.5898V7.70508ZM30.209 9.55078C28.3535 9.29687 26.7129 9.02344 25.2871 8.73047V26.25C25.2871 28.3008 25.1992 29.6094 25.0234 30.1758C24.8672 30.7227 24.4863 31.3477 23.8809 32.0508C22.7871 33.2617 20.5996 35.1758 17.3184 37.793C18.959 38.5938 20.2871 39.1309 21.3027 39.4043C23.0605 39.873 24.75 40.1074 26.3711 40.1074C27.2305 40.1074 28.5098 40 30.209 39.7852V9.55078ZM59.4473 3.01758L59.7402 3.7207C58.3535 4.61914 57.4062 5.57617 56.8984 6.5918C56.3906 7.60742 56.1367 9.21875 56.1367 11.4258V20.9766L65.1895 13.7695C67.123 15.0195 68.3828 16.2305 68.9688 17.4023C69.5547 18.5547 69.8477 20.5273 69.8477 23.3203V36.5918C69.8477 39.1309 69.584 40.9863 69.0566 42.1582C68.2168 44.0723 66.6641 45.8691 64.3984 47.5488C61.4297 49.7754 57.6504 51.6992 53.0605 53.3203L52.6504 52.2363C56.3809 50.6934 58.9785 49.2871 60.4434 48.0176C61.9082 46.748 62.8652 45.4004 63.3145 43.9746C63.6465 42.9004 63.8125 40.1074 63.8125 35.5957V23.3203C63.8125 21.9531 63.6758 21.0059 63.4023 20.4785C62.9922 19.7559 62.2402 19.043 61.1465 18.3398L56.1367 22.4121V38.7305L58.2168 40.8105L53.0605 45L47.8457 40.8105L50.1602 38.4961V11.8359C50.1602 9.41406 49.9453 7.75391 49.5156 6.85547C49.0859 5.95703 48.2363 5.14648 46.9668 4.42383L47.2891 3.7207C48.3242 4.01367 49.1543 4.3457 49.7793 4.7168C50.4043 5.06836 51.2246 5.69336 52.2402 6.5918C53.4316 5.45898 54.5742 4.62891 55.668 4.10156C56.7617 3.57422 58.0215 3.21289 59.4473 3.01758ZM87.4551 13.7695L95.7168 23.4082L82.5918 32.6074V37.9395L89.3887 40.6348L93.9883 37.5L94.6328 38.3789L85.1406 45C83.207 43.9648 81.6152 43.2227 80.3652 42.7734C79.1152 42.3242 77.3379 41.8555 75.0332 41.3672V40.6348C75.6973 40.2441 76.1367 39.7656 76.3516 39.1992C76.5859 38.6133 76.7031 37.3633 76.7031 35.4492V18.6914C78.5391 18.0273 80.0625 17.4219 81.2734 16.875C82.1523 16.4648 84.2129 15.4297 87.4551 13.7695ZM83.002 17.1387L82.5918 17.3438V30.6152L90.2969 25.2246L83.002 17.1387ZM112.914 1.49414H114.291C114.604 2.4707 115.121 3.16406 115.844 3.57422C116.781 4.12109 118.305 4.39453 120.414 4.39453C121.762 4.39453 126.039 4.25781 133.246 3.98438C137.602 3.80859 140.316 3.7207 141.391 3.7207C144.633 3.7207 147.387 4.27734 149.652 5.39062C151.938 6.50391 153.793 8.21289 155.219 10.5176C156.645 12.8223 157.592 15.9961 158.061 20.0391C158.393 22.8711 158.676 29.1113 158.91 38.7598C155.102 41.1621 152.172 43.2422 150.121 45C143.91 43.2617 138.432 42.3926 133.686 42.3926C130.463 42.3926 127.475 42.7832 124.721 43.5645C121.967 44.3262 119.047 45.5566 115.961 47.2559L115.111 46.1426C119.115 44.0723 122.631 41.9531 125.658 39.7852C128.686 37.6172 130.678 35.6836 131.635 33.9844C132.611 32.2656 133.1 30.0879 133.1 27.4512C133.1 26.4941 133.08 25.0781 133.041 23.2031C133.002 21.8945 132.982 20.5371 132.982 19.1309C132.982 16.6504 133.119 14.8242 133.393 13.6523C133.686 12.4805 134.291 11.1328 135.209 9.60938H134.447C132.064 10.9766 130.473 12.2266 129.672 13.3594C128.891 14.4727 128.5 15.8984 128.5 17.6367L128.734 28.0371C128.734 30.8105 127.904 33.3008 126.244 35.5078C124.584 37.6953 120.6 40.8594 114.291 45L113.441 43.8574C116.625 41.6309 118.725 39.8047 119.74 38.3789C120.756 36.9531 121.264 35.459 121.264 33.8965C121.264 32.5488 120.834 31.4062 119.975 30.4688C119.115 29.5117 118.168 29.0332 117.133 29.0332C116.605 29.0332 116.117 29.1797 115.668 29.4727C115.219 29.7656 114.613 30.3711 113.852 31.2891L112.914 30.3516C113.578 28.6719 114.457 27.4414 115.551 26.6602C116.664 25.8789 117.992 25.4883 119.535 25.4883C119.984 25.4883 120.473 25.5371 121 25.6348C121.547 25.7324 122.133 25.8789 122.758 26.0742C122.719 24.9414 122.699 23.9551 122.699 23.1152C122.699 20.0488 123.314 17.5586 124.545 15.6445C125.795 13.7109 128.178 11.6992 131.693 9.60938C128.471 9.94141 125.688 10.1074 123.344 10.1074C120.863 10.1074 118.734 9.75586 116.957 9.05273C115.629 8.50586 114.652 7.63672 114.027 6.44531C113.402 5.23438 113.031 3.58398 112.914 1.49414ZM136.645 9.60938C135.805 11.0352 135.238 12.2754 134.945 13.3301C134.555 14.7754 134.359 16.123 134.359 17.373L134.594 28.916C134.594 30.4004 134.223 31.9141 133.48 33.457C132.914 34.6094 131.85 36.0156 130.287 37.6758C133.139 37.207 135.316 36.9824 136.82 37.002L138.49 37.0312V9.60938H136.645ZM139.984 20.8594C141.176 21.6992 142.211 22.2754 143.09 22.5879C143.988 22.9004 144.955 23.0566 145.99 23.0566C147.025 23.0566 147.992 22.9004 148.891 22.5879C149.789 22.2559 150.844 21.6797 152.055 20.8594C151.684 16.4648 150.551 13.4961 148.656 11.9531C146.762 10.3906 143.871 9.60938 139.984 9.60938V20.8594ZM139.984 30.5273C141.312 29.7656 142.445 29.248 143.383 28.9746C144.32 28.6816 145.346 28.5352 146.459 28.5352C147.533 28.5352 148.529 28.6719 149.447 28.9453C150.365 29.1992 151.469 29.6875 152.758 30.4102L152.26 22.4707C151.01 23.2324 149.926 23.7598 149.008 24.0527C148.109 24.3262 147.123 24.4629 146.049 24.4629C145.014 24.4629 143.988 24.2969 142.973 23.9648C141.957 23.6328 140.961 23.1348 139.984 22.4707V30.5273ZM139.984 37.1191C142.367 37.3145 144.301 37.5586 145.785 37.8516C147.289 38.125 149.633 38.7109 152.816 39.6094C152.855 36.6602 152.875 35.1367 152.875 35.0391C152.875 34.8047 152.855 33.8672 152.816 32.2266C151.566 31.3672 150.463 30.7715 149.506 30.4395C148.568 30.1074 147.543 29.9414 146.43 29.9414C145.297 29.9414 144.242 30.1074 143.266 30.4395C142.309 30.7715 141.215 31.3672 139.984 32.2266V37.1191ZM180.854 13.7695L185.277 19.0723L180.854 22.998L177.162 18.3398L174.262 20.9766V38.0566L177.602 40.459L180.619 38.0566L181.293 38.9941L173.793 45C172.191 43.5742 170.844 42.5488 169.75 41.9238C168.676 41.2988 167.494 40.8105 166.205 40.459V39.8145C167.064 39.209 167.621 38.6035 167.875 37.998C168.148 37.373 168.285 36.1914 168.285 34.4531V22.5C168.285 20.9961 168.109 20 167.758 19.5117C167.426 19.0039 167.055 18.75 166.645 18.75C166.195 18.75 165.58 19.1406 164.799 19.9219L164.096 19.0723L170.277 13.7695C171.938 15.0391 173.07 16.1426 173.676 17.0801C174.066 17.666 174.262 18.4766 174.262 19.5117L180.854 13.7695ZM209.271 15.0293L210.326 15.4395C209.271 17.0801 208.598 18.3398 208.305 19.2188C208.031 20.0781 207.895 21.25 207.895 22.7344V35.2148C207.895 37.2852 208.051 38.584 208.363 39.1113C208.695 39.6191 209.086 39.873 209.535 39.873C209.77 39.873 210.014 39.8145 210.268 39.6973C210.424 39.5996 210.883 39.248 211.645 38.6426L212.289 39.6094L205.756 45C204.252 43.8281 203.246 42.7832 202.738 41.8652C202.23 40.9277 201.947 39.6289 201.889 37.9688L192.982 45C189.643 42.2656 187.973 39.5703 187.973 36.9141C187.973 35.1367 188.334 33.4668 189.057 31.9043C190.014 29.8535 191.664 27.4609 194.008 24.7266L190.492 17.2266L190.902 16.4062C191.664 16.4844 192.23 16.5234 192.602 16.5234C194.906 16.5234 196.938 15.6055 198.695 13.7695C200.121 14.6094 201.674 15.2832 203.354 15.791C205.053 16.2988 206.352 16.5527 207.25 16.5527C207.66 16.5527 207.973 16.4844 208.188 16.3477C208.402 16.1914 208.764 15.752 209.271 15.0293ZM201.889 20.625L191.869 17.5488L195.443 25.1074L201.889 28.125V20.625ZM201.889 29.3262L194.799 26.0156C193.705 28.3984 193.158 30.4883 193.158 32.2852C193.158 35.4492 194.594 38.0566 197.465 40.1074L201.889 36.5332V29.3262ZM228.109 13.7695L237.221 18.0469L242.67 15.293V21.8848L237.396 20.8594V34.1602C237.396 36.3086 237.523 37.7637 237.777 38.5254C238.109 39.5215 238.803 40.6738 239.857 41.9824C241.557 44.1504 242.406 45.7031 242.406 46.6406C242.406 47.5781 241.957 48.4766 241.059 49.3359C240.18 50.1953 237.816 51.5234 233.969 53.3203C232.66 52.8516 231.41 52.5 230.219 52.2656C229.027 52.0508 227.895 51.9434 226.82 51.9434C224.242 51.9434 221.264 52.4023 217.885 53.3203L217.475 52.3242L224.389 44.2383L217.475 39.2578V18.0469C221.342 17.2266 224.887 15.8008 228.109 13.7695ZM231.449 20.8008L223.422 18.0469V37.2363L227.787 40.4004L231.449 36.0059V20.8008ZM222.631 48.0176C225.17 47.6074 227.221 47.4023 228.783 47.4023C230.189 47.4023 231.605 47.5879 233.031 47.959C234.477 48.3301 235.932 48.8965 237.396 49.6582L238.598 48.8965C235.961 46.4355 234.174 44.4434 233.236 42.9199C232.299 41.3965 231.703 39.7363 231.449 37.9395L222.631 48.0176ZM267.045 18.0469V39.9609C264.115 41.1523 261.996 42.1289 260.688 42.8906C259.691 43.457 258.734 44.1602 257.816 45C254.984 43.2812 252.641 42.0898 250.785 41.4258C249.379 40.918 247.787 40.625 246.01 40.5469L245.717 39.9609C246.459 39.3359 246.928 38.7695 247.123 38.2617C247.396 37.5977 247.533 36.4746 247.533 34.8926V18.8086C251.107 17.6172 254.164 15.9375 256.703 13.7695C259.477 15.6055 262.924 17.0312 267.045 18.0469ZM253.451 37.1191L261.098 40.2539V21.6211C258.695 20.5078 256.996 19.7754 256 19.4238C255.297 19.1699 254.447 18.9551 253.451 18.7793V37.1191ZM290.658 13.7695L295.463 18.252L298.305 15.498L299.125 16.2891C297.758 17.5391 296.928 18.4863 296.635 19.1309C296.244 19.9902 296.049 21.1719 296.049 22.6758V36.5918C296.049 37.8809 296.254 38.8379 296.664 39.4629C296.918 39.873 297.201 40.0781 297.514 40.0781C297.787 40.0781 298.432 39.6973 299.447 38.9355L300.15 39.8438L293.852 45C292.23 43.7695 291.186 42.6855 290.717 41.748C290.268 40.791 290.043 39.2578 290.043 37.1484V21.0059L286.85 18.252L282.104 22.0312V38.7012L284.213 40.8105L279.027 45L273.812 40.8105L276.098 38.7012V23.7305C276.098 21.6016 275.883 20.166 275.453 19.4238C275.16 18.916 274.828 18.6621 274.457 18.6621C274.066 18.6621 273.48 18.9648 272.699 19.5703L271.996 18.75L278.236 13.7695C279.955 14.9805 281.029 15.9375 281.459 16.6406C281.889 17.3438 282.104 18.3203 282.104 19.5703V20.5664L290.658 13.7695ZM355.17 0.615234C358.588 1.45508 361.254 2.49023 363.168 3.7207C365.746 5.38086 367.699 7.41211 369.027 9.81445C370.375 12.2168 371.049 14.7754 371.049 17.4902C371.049 19.4043 370.717 21.3086 370.053 23.2031C369.408 25.0977 368.344 27.1875 366.859 29.4727C366.332 30.293 363.773 33.7598 359.184 39.873C361.527 38.8379 363.881 38.3203 366.244 38.3203C367.26 38.3203 368.119 38.3984 368.822 38.5547C369.545 38.6914 370.092 38.7598 370.463 38.7598C370.795 38.7598 371.098 38.6133 371.371 38.3203C371.664 38.0078 372.299 36.9141 373.275 35.0391L374.682 35.5664L369.643 45C366.986 44.1016 364.789 43.6523 363.051 43.6523C361.078 43.6523 359.457 44.0332 358.188 44.7949C356.918 45.5566 355.688 46.8848 354.496 48.7793L353.324 48.1934C353.988 46.2012 355.18 43.7207 356.898 40.752C359.73 35.8887 361.85 31.9043 363.256 28.7988C361.479 27.627 359.857 26.7969 358.393 26.3086C356.928 25.8008 355.375 25.5469 353.734 25.5469C352.367 25.5469 351.078 25.7227 349.867 26.0742C348.676 26.4062 347.27 27.0215 345.648 27.9199V33.0762C345.648 36.2207 345.482 38.4668 345.15 39.8145C344.838 41.1621 344.115 42.5391 342.982 43.9453C341.869 45.332 340.424 46.4844 338.646 47.4023C336.889 48.3398 335.062 48.8086 333.168 48.8086C332.406 48.8086 331.654 48.7305 330.912 48.5742C330.482 48.4961 329.252 48.1543 327.221 47.5488C325.209 46.9629 324.076 46.6406 323.822 46.582C323.275 46.4844 322.689 46.4355 322.064 46.4355C321.146 46.4355 320.326 46.5625 319.604 46.8164C318.9 47.0703 318.061 47.5293 317.084 48.1934L316.264 47.4609C318.256 43.9258 320.961 42.1582 324.379 42.1582C325.766 42.1582 327.562 42.4023 329.77 42.8906C331.117 43.1836 332.035 43.3301 332.523 43.3301C333.578 43.3301 334.486 42.9102 335.248 42.0703C336.01 41.2109 336.391 40.1074 336.391 38.7598C336.391 37.041 335.795 35.5957 334.604 34.4238C333.432 33.252 331.986 32.666 330.268 32.666C329.135 32.666 327.924 33.1445 326.635 34.1016L325.814 33.3691C326.693 32.2754 327.562 31.4941 328.422 31.0254C329.281 30.5371 330.248 30.293 331.322 30.293C331.947 30.293 332.592 30.4004 333.256 30.6152C333.939 30.8301 334.643 31.1523 335.365 31.582C335.033 29.8633 334.447 28.5449 333.607 27.627C332.143 26.0254 330.307 25.2246 328.1 25.2246C327.162 25.2246 326.391 25.3223 325.785 25.5176C325.316 25.6738 324.73 26.0156 324.027 26.543L323.324 25.5176C324.379 24.4434 325.346 23.7012 326.225 23.291C327.104 22.8613 328.07 22.6465 329.125 22.6465C330.023 22.6465 330.854 22.7832 331.615 23.0566C332.377 23.3105 333.402 23.8672 334.691 24.7266C334.691 23.1445 334.428 21.8945 333.9 20.9766C333.393 20.0391 332.484 19.1895 331.176 18.4277C329.887 17.666 328.627 17.2852 327.396 17.2852C326.283 17.2852 325.16 17.6758 324.027 18.457L323.324 17.4902C324.203 16.5332 325.023 15.8789 325.785 15.5273C326.742 15.0391 327.777 14.7949 328.891 14.7949C329.848 14.7949 330.736 14.9414 331.557 15.2344C332.377 15.5078 333.422 16.0645 334.691 16.9043V10.3711L355.17 0.615234ZM345.648 16.377C347.504 17.4512 349.105 18.2031 350.453 18.6328C351.801 19.043 353.207 19.248 354.672 19.248C356.332 19.248 357.904 18.9844 359.389 18.457C360.893 17.9297 362.641 16.9922 364.633 15.6445C363.539 12.8516 361.684 10.6152 359.066 8.93555C356.449 7.23633 353.51 6.38672 350.248 6.38672C348.861 6.38672 347.328 6.64063 345.648 7.14844V16.377ZM344.301 7.55859L340.727 9.31641V34.541C340.727 37.4707 340.434 39.5605 339.848 40.8105C339.262 42.0605 338.129 43.2617 336.449 44.4141C338.461 44.2578 339.916 43.8574 340.814 43.2129C342.143 42.2754 343.051 41.1328 343.539 39.7852C344.047 38.418 344.301 36.0938 344.301 32.8125V7.55859ZM345.648 26.3379C347.367 25.5176 348.822 24.9512 350.014 24.6387C351.225 24.3262 352.523 24.1699 353.91 24.1699C355.668 24.1699 357.299 24.4238 358.803 24.9316C360.326 25.4395 361.967 26.2891 363.725 27.4805C364.271 26.0938 364.682 24.7656 364.955 23.4961C365.229 22.2266 365.365 21.0156 365.365 19.8633C365.365 19.043 365.258 18.1152 365.043 17.0801C362.895 18.4473 361.059 19.3848 359.535 19.8926C358.031 20.4004 356.459 20.6543 354.818 20.6543C353.393 20.6543 351.986 20.459 350.6 20.0684C349.213 19.6582 347.562 18.9453 345.648 17.9297V26.3379ZM391.967 13.7695L400.229 23.4082L387.104 32.6074V37.9395L393.9 40.6348L398.5 37.5L399.145 38.3789L389.652 45C387.719 43.9648 386.127 43.2227 384.877 42.7734C383.627 42.3242 381.85 41.8555 379.545 41.3672V40.6348C380.209 40.2441 380.648 39.7656 380.863 39.1992C381.098 38.6133 381.215 37.3633 381.215 35.4492V18.6914C383.051 18.0273 384.574 17.4219 385.785 16.875C386.664 16.4648 388.725 15.4297 391.967 13.7695ZM387.514 17.1387L387.104 17.3438V30.6152L394.809 25.2246L387.514 17.1387ZM425.57 20.8301L434.271 13.7695C436.088 15.0781 437.27 16.2402 437.816 17.2559C438.578 18.623 438.959 20.2148 438.959 22.0312V39.7852C436.908 40.4297 435.18 41.1426 433.773 41.9238C432.367 42.7051 430.941 43.7305 429.496 45C426.195 42.9102 423.441 41.8652 421.234 41.8652C419.164 41.8652 417.094 42.9102 415.023 45C413.09 43.3984 411.234 42.2461 409.457 41.543C407.699 40.8203 405.775 40.4004 403.686 40.2832V39.5801C404.564 39.2285 405.18 38.7305 405.531 38.0859C405.902 37.4219 406.088 36.1426 406.088 34.248V23.1445C406.088 21.4062 406.029 20.3516 405.912 19.9805C405.814 19.5898 405.502 19.0918 404.975 18.4863C404.135 17.5098 403.568 16.6797 403.275 15.9961C402.982 15.293 402.836 14.4922 402.836 13.5938C402.836 11.9531 403.344 10.5176 404.359 9.28711C405.375 8.03711 407.162 6.78711 409.721 5.53711L410.248 6.29883C408.139 7.76367 407.084 9.18945 407.084 10.5762C407.084 11.0645 407.201 11.5234 407.436 11.9531C407.553 12.168 408.266 12.998 409.574 14.4434C410.453 15.4004 411.127 16.4648 411.596 17.6367C411.869 18.3398 412.055 19.3457 412.152 20.6543L420.678 13.7695C422.24 14.8047 423.393 15.8789 424.135 16.9922C424.896 18.1055 425.375 19.3848 425.57 20.8301ZM412.152 22.1191V37.1191L419.535 40.1953V24.2285C419.535 22.5488 419.359 21.3672 419.008 20.6836C418.656 20 417.855 19.2578 416.605 18.457L412.152 22.1191ZM425.57 22.3242V36.9727L433.012 40.1074V23.8184C433.012 22.373 432.865 21.3867 432.572 20.8594C432.299 20.3125 431.488 19.5215 430.141 18.4863L425.57 22.3242ZM458.852 24.6387L465.619 28.1836V40.5176C463.979 40.6738 462.494 41.0742 461.166 41.7188C459.838 42.3633 458.334 43.457 456.654 45C455.209 44.1406 453.949 43.5449 452.875 43.2129C451.82 42.8809 450.697 42.7148 449.506 42.7148C447.67 42.7148 446.039 43.2715 444.613 44.3848C444.086 44.7949 443.705 45 443.471 45C443.256 45 443.041 44.8926 442.826 44.6777C442.611 44.4629 442.504 44.248 442.504 44.0332C442.504 43.7988 442.709 43.4863 443.119 43.0957C443.354 42.8613 443.754 42.4121 444.32 41.748L446.986 38.4375L450.766 33.4277L444.35 29.9707V19.043C446.361 18.418 447.934 17.7246 449.066 16.9629C450.219 16.1816 451.322 15.1172 452.377 13.7695C454.877 14.8242 456.889 15.5664 458.412 15.9961C459.506 16.2891 460.551 16.4355 461.547 16.4355C462.641 16.4355 463.49 16.2012 464.096 15.7324C464.701 15.2441 465.004 14.7363 465.004 14.209C465.004 13.8574 464.809 13.5059 464.418 13.1543C463.656 12.4707 463.275 11.8066 463.275 11.1621C463.275 10.5566 463.441 10.0781 463.773 9.72656C464.105 9.35547 464.477 9.16992 464.887 9.16992C465.434 9.16992 465.922 9.42383 466.352 9.93164C466.801 10.4199 467.025 11.0742 467.025 11.8945C467.025 12.7344 466.85 13.5547 466.498 14.3555C466.146 15.1562 465.473 16.1914 464.477 17.4609L458.852 24.6387ZM450.268 26.6602L454.281 28.7402L460.668 20.2441C459.359 20.6152 458.227 20.8008 457.27 20.8008C454.867 20.8008 452.533 20 450.268 18.3984V26.6602ZM455.307 29.3262L448.246 38.7891C449.105 38.4961 449.906 38.2812 450.648 38.1445C451.391 38.0078 452.064 37.9395 452.67 37.9395C454.916 37.9395 457.25 38.6816 459.672 40.166V31.6699L455.307 29.3262Z" fill="#1A1A1A"/>
</svg>
